# 3ds Max Wavefront OBJ Exporter v0.97b - (c)2007 guruware
# File Created: 26.01.2019 06:40:43

mtllib arbre2.mtl

#
# object arbre002
#

v  0.1155 -0.2155 0.4833
v  0.0405 -0.2155 0.3801
v  0.0405 0.3126 0.3801
v  0.1155 0.3126 0.4833
v  -0.0808 -0.2155 0.4195
v  -0.0808 0.3126 0.4195
v  -0.0808 -0.2155 0.5471
v  -0.0808 0.3126 0.5471
v  0.0405 -0.2155 0.5865
v  0.0405 0.3126 0.5865
v  0.1643 0.2355 0.7504
v  -0.1465 0.2355 0.7504
v  0.1643 0.2355 0.2119
v  0.3198 0.2355 0.4812
v  0.1085 0.6193 0.3086
v  0.2081 0.6193 0.4812
v  -0.1465 0.2355 0.2119
v  -0.0907 0.6193 0.3086
v  -0.3020 0.2355 0.4812
v  -0.1904 0.6193 0.4812
v  -0.0907 0.6193 0.6537
v  0.1085 0.6193 0.6537
v  0.0341 1.3812 0.5072
v  0.0491 1.3805 0.4812
v  -0.0109 1.3834 0.4812
v  0.0041 1.3827 0.5072
v  0.1600 0.6180 0.2476
v  0.2943 0.6299 0.4812
v  -0.1086 0.5941 0.2476
v  -0.2429 0.5821 0.4812
v  -0.1086 0.5941 0.7147
v  0.1600 0.6180 0.7147
v  0.0691 0.9903 0.3473
v  0.1460 0.9971 0.4812
v  -0.0849 0.9766 0.3473
v  -0.1618 0.9698 0.4812
v  -0.0849 0.9766 0.6150
v  0.0691 0.9903 0.6150
v  0.1003 0.9504 0.3051
v  0.2018 0.9455 0.4812
v  -0.1028 0.9600 0.3051
v  -0.2044 0.9649 0.4812
v  -0.1028 0.9600 0.6572
v  0.1003 0.9504 0.6572
v  0.0341 1.3812 0.4551
v  0.0041 1.3827 0.4551
v  0.3845 -0.2131 0.0159
v  0.3096 -0.2131 -0.0873
v  0.3096 0.2105 -0.0873
v  0.3845 0.2105 0.0159
v  0.1882 -0.2131 -0.0479
v  0.1882 0.2105 -0.0479
v  0.1882 -0.2131 0.0797
v  0.1882 0.2105 0.0797
v  0.3096 -0.2131 0.1191
v  0.3096 0.2105 0.1191
v  0.4334 0.1334 0.2830
v  0.1225 0.1334 0.2830
v  0.4334 0.1334 -0.2555
v  0.5889 0.1334 0.0137
v  0.3776 0.4284 -0.1588
v  0.4772 0.4284 0.0137
v  0.1225 0.1334 -0.2555
v  0.1783 0.4284 -0.1588
v  -0.0329 0.1334 0.0137
v  0.0787 0.4284 0.0137
v  0.1783 0.4284 0.1863
v  0.3776 0.4284 0.1863
v  0.3104 1.0506 0.0295
v  0.3428 1.0456 -0.0313
v  0.2131 1.0456 -0.0313
v  0.2455 1.0506 0.0295
v  0.4090 0.4036 -0.2254
v  0.5477 0.3933 0.0080
v  0.1470 0.4036 -0.2254
v  0.0083 0.3933 0.0080
v  0.1431 0.3830 0.2413
v  0.4128 0.3830 0.2413
v  0.3530 0.6603 -0.1142
v  0.4325 0.6544 0.0195
v  0.2029 0.6603 -0.1142
v  0.1234 0.6544 0.0195
v  0.2007 0.6485 0.1532
v  0.3552 0.6485 0.1532
v  0.3879 0.6035 -0.1895
v  0.4978 0.6203 0.0166
v  0.1681 0.6035 -0.1895
v  0.0581 0.6203 0.0166
v  0.1681 0.6371 0.2226
v  0.3879 0.6371 0.2226
v  0.3104 1.0407 -0.0921
v  0.2455 1.0407 -0.0921
v  -0.2037 -0.2323 0.0159
v  -0.2787 -0.2323 -0.0873
v  -0.2787 0.1993 -0.0873
v  -0.2037 0.1993 0.0159
v  -0.4000 -0.2323 -0.0479
v  -0.4000 0.1993 -0.0479
v  -0.4000 -0.2323 0.0797
v  -0.4000 0.1993 0.0797
v  -0.2787 -0.2323 0.1191
v  -0.2787 0.1993 0.1191
v  -0.1548 0.1539 0.2830
v  -0.4657 0.1539 0.2830
v  -0.1548 0.1539 -0.2555
v  0.0006 0.1539 0.0137
v  -0.2106 0.3273 -0.1588
v  -0.1110 0.3273 0.0137
v  -0.4657 0.1539 -0.2555
v  -0.4099 0.3273 -0.1588
v  -0.6211 0.1539 0.0137
v  -0.5095 0.3273 0.0137
v  -0.4099 0.3273 0.1863
v  -0.2106 0.3273 0.1863
v  -0.3015 0.7142 0.0428
v  -0.2874 0.7162 0.0182
v  -0.3441 0.7129 0.0182
v  -0.3298 0.7126 0.0428
v  -0.1787 0.3181 -0.2198
v  -0.0440 0.3125 0.0137
v  -0.4482 0.3294 -0.2198
v  -0.5829 0.3350 0.0137
v  -0.4482 0.3294 0.2473
v  -0.1787 0.3181 0.2473
v  -0.2298 0.4740 -0.1201
v  -0.1526 0.4708 0.0137
v  -0.3842 0.4804 -0.1201
v  -0.4614 0.4837 0.0137
v  -0.3842 0.4804 0.1476
v  -0.2298 0.4740 0.1476
v  -0.2082 0.4505 -0.1798
v  -0.1003 0.4479 0.0062
v  -0.4230 0.4379 -0.1798
v  -0.5298 0.4228 0.0062
v  -0.4219 0.4202 0.1923
v  -0.2072 0.4327 0.1923
v  -0.3016 0.7166 -0.0063
v  -0.3300 0.7149 -0.0063
# 138 vertices

vn 1.0000 0.0000 -0.0001
vn 0.3091 0.0000 -0.9510
vn 0.3090 0.0000 -0.9511
vn -0.8091 -0.0000 -0.5877
vn -0.8090 -0.0000 -0.5878
vn -0.8090 0.0000 0.5878
vn 0.3089 0.0000 0.9511
vn 0.4505 -0.4339 0.7803
vn -0.4505 -0.4339 0.7803
vn 0.4505 -0.4339 -0.7803
vn 0.9010 -0.4339 -0.0000
vn 0.3571 -0.7019 -0.6163
vn 0.7535 -0.6575 -0.0000
vn -0.4505 -0.4339 -0.7803
vn -0.2560 -0.8094 -0.5286
vn -0.9010 -0.4339 -0.0000
vn -0.5007 -0.8656 -0.0000
vn -0.2560 -0.8094 0.5286
vn 0.3571 -0.7019 0.6163
vn 0.3196 0.8081 0.4948
vn 0.6077 0.7942 0.0000
vn -0.5286 0.8488 0.0000
vn -0.2491 0.8354 0.4899
vn 0.4882 -0.4024 -0.7744
vn 0.9392 -0.3433 0.0000
vn -0.3917 -0.5359 -0.7479
vn -0.7906 -0.6123 0.0000
vn -0.3917 -0.5359 0.7479
vn 0.4882 -0.4024 0.7744
vn 0.2878 -0.8583 -0.4250
vn 0.4999 -0.8661 -0.0000
vn -0.2696 -0.8119 -0.5178
vn -0.6464 -0.7630 0.0000
vn -0.2696 -0.8119 0.5178
vn 0.2878 -0.8583 0.4250
vn 0.3844 -0.5335 -0.7534
vn 0.8189 -0.5739 0.0000
vn -0.4758 -0.4348 -0.7645
vn -0.9281 -0.3723 0.0000
vn -0.4758 -0.4348 0.7645
vn 0.3844 -0.5335 0.7534
vn 0.3196 0.8081 -0.4948
vn -0.2491 0.8354 -0.4899
vn 1.0000 0.0000 -0.0000
vn 0.3089 0.0000 -0.9511
vn -0.8090 0.0000 -0.5878
vn 0.3090 0.0000 0.9511
vn 0.4604 -0.3902 0.7974
vn -0.4604 -0.3902 0.7974
vn 0.4604 -0.3902 -0.7974
vn 0.9207 -0.3902 0.0000
vn 0.3180 -0.7523 -0.5770
vn 0.6104 -0.7918 -0.0198
vn -0.4604 -0.3902 -0.7974
vn -0.3180 -0.7523 -0.5770
vn -0.9207 -0.3902 0.0000
vn -0.6104 -0.7918 -0.0198
vn -0.2907 -0.8326 0.4715
vn 0.2907 -0.8326 0.4715
vn 0.2994 0.8583 0.4167
vn 0.5883 0.8059 -0.0663
vn -0.5883 0.8059 -0.0663
vn -0.2994 0.8583 0.4167
vn 0.4445 -0.4112 -0.7958
vn 0.8871 -0.4611 -0.0230
vn -0.4445 -0.4112 -0.7958
vn -0.8871 -0.4611 -0.0230
vn -0.4352 -0.5188 0.7358
vn 0.4352 -0.5188 0.7358
vn 0.2746 -0.7939 -0.5425
vn 0.6306 -0.7760 -0.0145
vn -0.2746 -0.7939 -0.5425
vn -0.6306 -0.7760 -0.0145
vn -0.3621 -0.6846 0.6327
vn 0.3621 -0.6846 0.6327
vn 0.4544 -0.5670 -0.6870
vn 0.8634 -0.5003 0.0655
vn -0.4544 -0.5670 -0.6870
vn -0.8634 -0.5003 0.0655
vn -0.4549 -0.3615 0.8139
vn 0.4549 -0.3615 0.8139
vn 0.3122 0.7562 -0.5751
vn -0.3122 0.7562 -0.5751
vn -0.8091 0.0000 0.5877
vn 0.3091 0.0000 0.9510
vn 0.4786 -0.2891 0.8290
vn -0.4786 -0.2891 0.8290
vn 0.4786 -0.2891 -0.8290
vn 0.9573 -0.2891 0.0000
vn 0.4070 -0.5731 -0.7113
vn 0.7970 -0.6039 -0.0000
vn -0.4786 -0.2891 -0.8290
vn -0.4289 -0.5124 -0.7440
vn -0.9573 -0.2891 0.0000
vn -0.8758 -0.4827 0.0000
vn -0.4289 -0.5124 0.7440
vn 0.4070 -0.5731 0.7113
vn 0.2002 0.8841 0.4222
vn 0.4232 0.9055 0.0309
vn -0.4704 0.8818 0.0324
vn -0.2500 0.8722 0.4204
vn 0.4670 -0.2998 -0.8319
vn 0.9443 -0.3292 0.0000
vn -0.4944 -0.2429 -0.8346
vn -0.9765 -0.2154 -0.0000
vn -0.4944 -0.2429 0.8346
vn 0.4670 -0.2998 0.8319
vn 0.3502 -0.6279 -0.6950
vn 0.7571 -0.6520 -0.0423
vn -0.3838 -0.6775 -0.6275
vn -0.6619 -0.7281 -0.1782
vn -0.6110 -0.7197 0.3297
vn 0.3119 -0.7451 0.5896
vn 0.4837 -0.3324 -0.8097
vn 0.9328 -0.3604 -0.0052
vn -0.4362 -0.3903 -0.8108
vn -0.8826 -0.4701 0.0024
vn -0.3785 -0.5015 0.7780
vn 0.4805 -0.4543 0.7502
vn 0.1954 0.9148 -0.3536
vn -0.2480 0.9030 -0.3508
# 121 vertex normals

vt 0.7509 0.6664 0.0000
vt 0.9108 0.6664 0.0000
vt 0.9108 0.9896 0.0000
vt 0.7509 0.9896 0.0000
vt 0.1106 0.6664 0.0000
vt 0.2704 0.6664 0.0000
vt 0.2704 0.9896 0.0000
vt 0.1106 0.9896 0.0000
vt 0.4309 0.6664 0.0000
vt 0.4309 0.9896 0.0000
vt 0.5910 0.6664 0.0000
vt 0.5910 0.9896 0.0000
vt 0.8956 0.6210 0.0000
vt 0.7223 0.6210 0.0000
vt 0.8956 0.3212 0.0000
vt 0.9823 0.4711 0.0000
vt 0.2917 0.6030 0.0000
vt 0.2123 0.5490 0.0000
vt 0.2622 0.4927 0.0000
vt 0.3238 0.5355 0.0000
vt 0.1523 0.4762 0.0000
vt 0.2171 0.4349 0.0000
vt 0.1161 0.3895 0.0000
vt 0.1900 0.3744 0.0000
vt 0.5682 0.6045 0.0000
vt 0.4781 0.6311 0.0000
vt 0.4692 0.5549 0.0000
vt 0.5333 0.5376 0.0000
vt 0.3837 0.6305 0.0000
vt 0.3959 0.5563 0.0000
vt 0.4162 0.3683 0.0000
vt 0.4066 0.3615 0.0000
vt 0.4318 0.3629 0.0000
vt 0.4259 0.3690 0.0000
vt 0.2740 0.4820 0.0000
vt 0.3309 0.5207 0.0000
vt 0.2301 0.4261 0.0000
vt 0.1989 0.3551 0.0000
vt 0.4678 0.5392 0.0000
vt 0.5426 0.5186 0.0000
vt 0.3968 0.5404 0.0000
vt 0.3194 0.4230 0.0000
vt 0.3629 0.4534 0.0000
vt 0.2894 0.3800 0.0000
vt 0.2736 0.3328 0.0000
vt 0.4662 0.4641 0.0000
vt 0.5128 0.4466 0.0000
vt 0.4139 0.4679 0.0000
vt 0.3267 0.4160 0.0000
vt 0.3678 0.4430 0.0000
vt 0.2980 0.3742 0.0000
vt 0.2901 0.3181 0.0000
vt 0.4653 0.4538 0.0000
vt 0.5137 0.4245 0.0000
vt 0.4147 0.4578 0.0000
vt 0.3952 0.3583 0.0000
vt 0.3886 0.3511 0.0000
vt 0.3897 0.3427 0.0000
vt 0.6356 0.4711 0.0000
vt 0.7223 0.3212 0.0000
vt 0.1163 0.1111 0.0000
vt 0.1900 0.0616 0.0000
vt 0.2166 0.1150 0.0000
vt 0.1559 0.1556 0.0000
vt 0.2740 0.0331 0.0000
vt 0.2849 0.0929 0.0000
vt 0.3641 0.0329 0.0000
vt 0.3497 0.0900 0.0000
vt 0.0126 0.3490 0.0000
vt 0.0216 0.2593 0.0000
vt 0.0799 0.2762 0.0000
vt 0.0711 0.3402 0.0000
vt 0.0586 0.1787 0.0000
vt 0.1088 0.2110 0.0000
vt 0.2561 0.2946 0.0000
vt 0.2742 0.2839 0.0000
vt 0.2596 0.3286 0.0000
vt 0.2503 0.3121 0.0000
vt 0.2256 0.1285 0.0000
vt 0.1670 0.1663 0.0000
vt 0.2897 0.1093 0.0000
vt 0.3648 0.1087 0.0000
vt 0.0944 0.2845 0.0000
vt 0.0867 0.3593 0.0000
vt 0.1214 0.2192 0.0000
vt 0.2487 0.1777 0.0000
vt 0.2009 0.2075 0.0000
vt 0.3025 0.1640 0.0000
vt 0.3542 0.1650 0.0000
vt 0.1456 0.3003 0.0000
vt 0.1442 0.3509 0.0000
vt 0.1641 0.2485 0.0000
vt 0.2575 0.1931 0.0000
vt 0.2104 0.2185 0.0000
vt 0.3067 0.1832 0.0000
vt 0.3682 0.1893 0.0000
vt 0.1594 0.3048 0.0000
vt 0.1695 0.3657 0.0000
vt 0.1734 0.2569 0.0000
vt 0.2870 0.2680 0.0000
vt 0.3040 0.2638 0.0000
vt 0.3198 0.2730 0.0000
vt 0.6342 0.1583 0.0000
vt 0.6583 0.2624 0.0000
vt 0.6074 0.2642 0.0000
vt 0.5883 0.1797 0.0000
vt 0.6399 0.3664 0.0000
vt 0.5909 0.3483 0.0000
vt 0.5802 0.4550 0.0000
vt 0.5498 0.4140 0.0000
vt 0.3712 0.0109 0.0000
vt 0.4779 0.0201 0.0000
vt 0.4609 0.0694 0.0000
vt 0.3839 0.0604 0.0000
vt 0.5699 0.0728 0.0000
vt 0.5359 0.1107 0.0000
vt 0.4421 0.2328 0.0000
vt 0.4468 0.2434 0.0000
vt 0.4237 0.2340 0.0000
vt 0.4323 0.2292 0.0000
vt 0.5930 0.2664 0.0000
vt 0.5759 0.1855 0.0000
vt 0.5727 0.3461 0.0000
vt 0.5202 0.4172 0.0000
vt 0.4513 0.0844 0.0000
vt 0.3630 0.0814 0.0000
vt 0.5250 0.1205 0.0000
vt 0.5475 0.2663 0.0000
vt 0.5351 0.2044 0.0000
vt 0.5275 0.3278 0.0000
vt 0.4886 0.3738 0.0000
vt 0.4369 0.1311 0.0000
vt 0.3775 0.1325 0.0000
vt 0.4956 0.1557 0.0000
vt 0.5357 0.2689 0.0000
vt 0.5265 0.2098 0.0000
vt 0.5105 0.3231 0.0000
vt 0.4550 0.3614 0.0000
vt 0.4285 0.1458 0.0000
vt 0.3618 0.1632 0.0000
vt 0.4877 0.1633 0.0000
vt 0.4512 0.2543 0.0000
vt 0.4472 0.2643 0.0000
vt 0.4380 0.2676 0.0000
# 144 texture coords

o arbre002
g arbre002
usemtl wire_064023003
s 8
f 1/1/1 2/2/2 3/3/3 4/4/1 
f 2/5/2 5/6/4 6/7/5 3/8/3 
f 5/6/4 7/9/6 8/10/6 6/7/5 
f 7/9/6 9/11/7 10/12/7 8/10/6 
f 9/11/7 1/1/1 4/4/1 10/12/7 
s 1
f 11/13/8 12/14/9 13/15/10 14/16/11 
s 8
f 14/17/11 13/18/10 15/19/12 16/20/13 
f 13/18/10 17/21/14 18/22/15 15/19/12 
f 17/21/14 19/23/16 20/24/17 18/22/15 
f 19/25/16 12/26/9 21/27/18 20/28/17 
f 12/26/9 11/29/8 22/30/19 21/27/18 
f 11/29/8 14/17/11 16/20/13 22/30/19 
s 1
f 23/31/20 24/32/21 25/33/22 26/34/23 
s off
f 16/20/13 15/19/12 27/35/24 28/36/25 
f 15/19/12 18/22/15 29/37/26 27/35/24 
f 18/22/15 20/24/17 30/38/27 29/37/26 
f 20/28/17 21/27/18 31/39/28 30/40/27 
f 21/27/18 22/30/19 32/41/29 31/39/28 
f 22/30/19 16/20/13 28/36/25 32/41/29 
f 28/36/25 27/35/24 33/42/30 34/43/31 
f 27/35/24 29/37/26 35/44/32 33/42/30 
f 29/37/26 30/38/27 36/45/33 35/44/32 
f 30/40/27 31/39/28 37/46/34 36/47/33 
f 31/39/28 32/41/29 38/48/35 37/46/34 
f 32/41/29 28/36/25 34/43/31 38/48/35 
f 34/43/31 33/42/30 39/49/36 40/50/37 
f 33/42/30 35/44/32 41/51/38 39/49/36 
f 35/44/32 36/45/33 42/52/39 41/51/38 
f 36/47/33 37/46/34 43/53/40 42/54/39 
f 37/46/34 38/48/35 44/55/41 43/53/40 
f 38/48/35 34/43/31 40/50/37 44/55/41 
f 40/50/37 39/49/36 45/56/42 24/32/21 
f 39/49/36 41/51/38 46/57/43 45/56/42 
f 41/51/38 42/52/39 25/58/22 46/57/43 
f 42/54/39 43/53/40 26/34/23 25/33/22 
f 43/53/40 44/55/41 23/31/20 26/34/23 
f 44/55/41 40/50/37 24/32/21 23/31/20 
s 1
f 24/32/21 45/56/42 46/57/43 25/58/22 
f 12/14/9 19/59/16 17/60/14 13/15/10 
s 8
f 47/1/44 48/2/3 49/3/45 50/4/44 
f 48/5/3 51/6/46 52/7/46 49/8/45 
f 51/6/46 53/9/6 54/10/6 52/7/46 
f 53/9/6 55/11/47 56/12/47 54/10/6 
f 55/11/47 47/1/44 50/4/44 56/12/47 
s 1
f 57/13/48 58/14/49 59/15/50 60/16/51 
s 8
f 60/61/51 59/62/50 61/63/52 62/64/53 
f 59/62/50 63/65/54 64/66/55 61/63/52 
f 63/65/54 65/67/56 66/68/57 64/66/55 
f 65/69/56 58/70/49 67/71/58 66/72/57 
f 58/70/49 57/73/48 68/74/59 67/71/58 
f 57/73/48 60/61/51 62/64/53 68/74/59 
s 1
f 69/75/60 70/76/61 71/77/62 72/78/63 
s off
f 62/64/53 61/63/52 73/79/64 74/80/65 
f 61/63/52 64/66/55 75/81/66 73/79/64 
f 64/66/55 66/68/57 76/82/67 75/81/66 
f 66/72/57 67/71/58 77/83/68 76/84/67 
f 67/71/58 68/74/59 78/85/69 77/83/68 
f 68/74/59 62/64/53 74/80/65 78/85/69 
f 74/80/65 73/79/64 79/86/70 80/87/71 
f 73/79/64 75/81/66 81/88/72 79/86/70 
f 75/81/66 76/82/67 82/89/73 81/88/72 
f 76/84/67 77/83/68 83/90/74 82/91/73 
f 77/83/68 78/85/69 84/92/75 83/90/74 
f 78/85/69 74/80/65 80/87/71 84/92/75 
f 80/87/71 79/86/70 85/93/76 86/94/77 
f 79/86/70 81/88/72 87/95/78 85/93/76 
f 81/88/72 82/89/73 88/96/79 87/95/78 
f 82/91/73 83/90/74 89/97/80 88/98/79 
f 83/90/74 84/92/75 90/99/81 89/97/80 
f 84/92/75 80/87/71 86/94/77 90/99/81 
f 86/94/77 85/93/76 91/100/82 70/76/61 
f 85/93/76 87/95/78 92/101/83 91/100/82 
f 87/95/78 88/96/79 71/102/62 92/101/83 
f 88/98/79 89/97/80 72/78/63 71/77/62 
f 89/97/80 90/99/81 69/75/60 72/78/63 
f 90/99/81 86/94/77 70/76/61 69/75/60 
s 1
f 70/76/61 91/100/82 92/101/83 71/102/62 
f 58/14/49 65/59/56 63/60/54 59/15/50 
s 8
f 93/1/44 94/2/3 95/3/3 96/4/44 
f 94/5/3 97/6/46 98/7/46 95/8/3 
f 97/6/46 99/9/84 100/10/84 98/7/46 
f 99/9/84 101/11/85 102/12/85 100/10/84 
f 101/11/85 93/1/44 96/4/44 102/12/85 
s 1
f 103/13/86 104/14/87 105/15/88 106/16/89 
s 8
f 106/103/89 105/104/88 107/105/90 108/106/91 
f 105/104/88 109/107/92 110/108/93 107/105/90 
f 109/107/92 111/109/94 112/110/95 110/108/93 
f 111/111/94 104/112/87 113/113/96 112/114/95 
f 104/112/87 103/115/86 114/116/97 113/113/96 
f 103/115/86 106/103/89 108/106/91 114/116/97 
s 1
f 115/117/98 116/118/99 117/119/100 118/120/101 
s off
f 108/106/91 107/105/90 119/121/102 120/122/103 
f 107/105/90 110/108/93 121/123/104 119/121/102 
f 110/108/93 112/110/95 122/124/105 121/123/104 
f 112/114/95 113/113/96 123/125/106 122/126/105 
f 113/113/96 114/116/97 124/127/107 123/125/106 
f 114/116/97 108/106/91 120/122/103 124/127/107 
f 120/122/103 119/121/102 125/128/108 126/129/109 
f 119/121/102 121/123/104 127/130/110 125/128/108 
f 121/123/104 122/124/105 128/131/111 127/130/110 
f 122/126/105 123/125/106 129/132/112 128/133/111 
f 123/125/106 124/127/107 130/134/113 129/132/112 
f 124/127/107 120/122/103 126/129/109 130/134/113 
f 126/129/109 125/128/108 131/135/114 132/136/115 
f 125/128/108 127/130/110 133/137/116 131/135/114 
f 127/130/110 128/131/111 134/138/117 133/137/116 
f 128/133/111 129/132/112 135/139/118 134/140/117 
f 129/132/112 130/134/113 136/141/119 135/139/118 
f 130/134/113 126/129/109 132/136/115 136/141/119 
f 132/136/115 131/135/114 137/142/120 116/118/99 
f 131/135/114 133/137/116 138/143/121 137/142/120 
f 133/137/116 134/138/117 117/144/100 138/143/121 
f 134/140/117 135/139/118 118/120/101 117/119/100 
f 135/139/118 136/141/119 115/117/98 118/120/101 
f 136/141/119 132/136/115 116/118/99 115/117/98 
s 1
f 116/118/99 137/142/120 138/143/121 117/144/100 
f 104/14/87 111/59/94 109/60/92 105/15/88 
# 117 polygons

